<svg width="124" height="84" viewBox="0 0 124 84" fill="none" xmlns="http://www.w3.org/2000/svg">
<path d="M1.5 54V30.7273H11.5455C13.2727 30.7273 14.7841 31.0682 16.0795 31.75C17.375 32.4318 18.3826 33.3902 19.1023 34.625C19.822 35.8598 20.1818 37.303 20.1818 38.9545C20.1818 40.6212 19.8106 42.0644 19.0682 43.2841C18.3333 44.5038 17.2992 45.4432 15.9659 46.1023C14.6402 46.7614 13.0909 47.0909 11.3182 47.0909H5.31818V42.1818H10.0455C10.7879 42.1818 11.4205 42.053 11.9432 41.7955C12.4735 41.5303 12.8788 41.1553 13.1591 40.6705C13.447 40.1856 13.5909 39.6136 13.5909 38.9545C13.5909 38.2879 13.447 37.7197 13.1591 37.25C12.8788 36.7727 12.4735 36.4091 11.9432 36.1591C11.4205 35.9015 10.7879 35.7727 10.0455 35.7727H7.81818V54H1.5ZM20.7509 54V36.5455H27.0236V54H20.7509ZM23.8873 34.7273C23.0388 34.7273 22.3115 34.447 21.7055 33.8864C21.0994 33.3258 20.7964 32.6515 20.7964 31.8636C20.7964 31.0758 21.0994 30.4015 21.7055 29.8409C22.3115 29.2803 23.0388 29 23.8873 29C24.7433 29 25.4706 29.2803 26.0691 29.8409C26.6752 30.4015 26.9782 31.0758 26.9782 31.8636C26.9782 32.6515 26.6752 33.3258 26.0691 33.8864C25.4706 34.447 24.7433 34.7273 23.8873 34.7273ZM36.7887 54.3182C34.8948 54.3182 33.2736 53.9432 31.9251 53.1932C30.5766 52.4356 29.5425 51.3826 28.8228 50.0341C28.1031 48.678 27.7433 47.1061 27.7433 45.3182C27.7433 43.5303 28.1031 41.9621 28.8228 40.6136C29.5425 39.2576 30.5766 38.2045 31.9251 37.4545C33.2736 36.697 34.8948 36.3182 36.7887 36.3182C38.5009 36.3182 39.9819 36.6288 41.2319 37.25C42.4895 37.8636 43.463 38.7348 44.1524 39.8636C44.8418 40.9848 45.1903 42.303 45.1978 43.8182H39.3797C39.2963 42.9015 39.0312 42.2045 38.5842 41.7273C38.1448 41.2424 37.5766 41 36.8797 41C36.3342 41 35.8569 41.1591 35.4478 41.4773C35.0388 41.7879 34.7206 42.2614 34.4933 42.8977C34.266 43.5265 34.1524 44.3182 34.1524 45.2727C34.1524 46.2273 34.266 47.0227 34.4933 47.6591C34.7206 48.2879 35.0388 48.7614 35.4478 49.0795C35.8569 49.3902 36.3342 49.5455 36.8797 49.5455C37.3418 49.5455 37.7509 49.4394 38.1069 49.2273C38.463 49.0076 38.7509 48.6894 38.9706 48.2727C39.1978 47.8485 39.3342 47.3333 39.3797 46.7273H45.1978C45.1751 48.2652 44.8228 49.6061 44.141 50.75C43.4592 51.8864 42.4933 52.7652 41.2433 53.3864C40.0009 54.0076 38.516 54.3182 36.7887 54.3182ZM56.355 36.5455V41.0909H44.855V36.5455H56.355ZM47.0823 32.3636H53.355V48.3864C53.355 48.6288 53.3967 48.8333 53.48 49C53.5633 49.1591 53.6921 49.2803 53.8664 49.3636C54.0406 49.4394 54.2641 49.4773 54.5368 49.4773C54.7262 49.4773 54.9459 49.4545 55.1959 49.4091C55.4535 49.3636 55.6429 49.3258 55.7641 49.2955L56.6732 53.7045C56.3929 53.7879 55.9914 53.8902 55.4686 54.0114C54.9535 54.1326 54.3398 54.2121 53.6277 54.25C52.1883 54.3258 50.98 54.178 50.0027 53.8068C49.0255 53.428 48.2906 52.8333 47.7982 52.0227C47.3058 51.2121 47.0671 50.197 47.0823 48.9773V32.3636ZM65.2962 54.3182C63.4023 54.3182 61.7811 53.9432 60.4326 53.1932C59.0841 52.4356 58.05 51.3826 57.3303 50.0341C56.6106 48.678 56.2508 47.1061 56.2508 45.3182C56.2508 43.5303 56.6106 41.9621 57.3303 40.6136C58.05 39.2576 59.0841 38.2045 60.4326 37.4545C61.7811 36.697 63.4023 36.3182 65.2962 36.3182C67.1902 36.3182 68.8114 36.697 70.1599 37.4545C71.5084 38.2045 72.5425 39.2576 73.2622 40.6136C73.9819 41.9621 74.3417 43.5303 74.3417 45.3182C74.3417 47.1061 73.9819 48.678 73.2622 50.0341C72.5425 51.3826 71.5084 52.4356 70.1599 53.1932C68.8114 53.9432 67.1902 54.3182 65.2962 54.3182ZM65.3417 49.6818C65.872 49.6818 66.3303 49.5038 66.7167 49.1477C67.1031 48.7917 67.4023 48.2841 67.6144 47.625C67.8266 46.9659 67.9326 46.1818 67.9326 45.2727C67.9326 44.3561 67.8266 43.572 67.6144 42.9205C67.4023 42.2614 67.1031 41.7538 66.7167 41.3977C66.3303 41.0417 65.872 40.8636 65.3417 40.8636C64.7811 40.8636 64.3 41.0417 63.8985 41.3977C63.497 41.7538 63.1902 42.2614 62.9781 42.9205C62.7659 43.572 62.6599 44.3561 62.6599 45.2727C62.6599 46.1818 62.7659 46.9659 62.9781 47.625C63.1902 48.2841 63.497 48.7917 63.8985 49.1477C64.3 49.5038 64.7811 49.6818 65.3417 49.6818ZM75.0472 54V36.5455H81.1381V39.8636H81.3199C81.6381 38.6364 82.1419 37.7386 82.8313 37.1705C83.5282 36.6023 84.3426 36.3182 85.2744 36.3182C85.5472 36.3182 85.8161 36.3409 86.0813 36.3864C86.354 36.4242 86.6153 36.4811 86.8653 36.5568V41.9091C86.5547 41.803 86.1722 41.7235 85.7176 41.6705C85.2631 41.6174 84.8729 41.5909 84.5472 41.5909C83.9335 41.5909 83.3805 41.7311 82.8881 42.0114C82.4032 42.2841 82.0206 42.6705 81.7403 43.1705C81.46 43.6629 81.3199 44.2424 81.3199 44.9091V54H75.0472ZM87.0822 54V36.5455H93.3549V54H87.0822ZM90.2185 34.7273C89.37 34.7273 88.6428 34.447 88.0367 33.8864C87.4306 33.3258 87.1276 32.6515 87.1276 31.8636C87.1276 31.0758 87.4306 30.4015 88.0367 29.8409C88.6428 29.2803 89.37 29 90.2185 29C91.0746 29 91.8019 29.2803 92.4003 29.8409C93.0064 30.4015 93.3094 31.0758 93.3094 31.8636C93.3094 32.6515 93.0064 33.3258 92.4003 33.8864C91.8019 34.447 91.0746 34.7273 90.2185 34.7273ZM99.5745 54.2727C98.4609 54.2727 97.4761 54.0909 96.62 53.7273C95.7715 53.3561 95.1049 52.7955 94.62 52.0455C94.1352 51.2955 93.8927 50.3409 93.8927 49.1818C93.8927 48.2273 94.0556 47.4129 94.3814 46.7386C94.7071 46.0568 95.1617 45.5 95.745 45.0682C96.3283 44.6364 97.0064 44.3068 97.7791 44.0795C98.5594 43.8523 99.4003 43.7045 100.302 43.6364C101.279 43.5606 102.063 43.4697 102.654 43.3636C103.253 43.25 103.684 43.0947 103.95 42.8977C104.215 42.6932 104.347 42.4242 104.347 42.0909V42.0455C104.347 41.5909 104.173 41.2424 103.825 41C103.476 40.7576 103.029 40.6364 102.484 40.6364C101.885 40.6364 101.397 40.7689 101.018 41.0341C100.647 41.2917 100.423 41.6894 100.347 42.2273H94.5745C94.6503 41.1667 94.9874 40.1894 95.5859 39.2955C96.192 38.3939 97.0745 37.6742 98.2336 37.1364C99.3927 36.5909 100.84 36.3182 102.575 36.3182C103.825 36.3182 104.946 36.4659 105.938 36.7614C106.931 37.0492 107.775 37.4545 108.472 37.9773C109.169 38.4924 109.7 39.0985 110.063 39.7955C110.434 40.4848 110.62 41.2348 110.62 42.0455V54H104.756V51.5455H104.62C104.272 52.197 103.847 52.7235 103.347 53.125C102.855 53.5265 102.29 53.8182 101.654 54C101.025 54.1818 100.332 54.2727 99.5745 54.2727ZM101.62 50.3182C102.097 50.3182 102.544 50.2197 102.961 50.0227C103.385 49.8258 103.73 49.5417 103.995 49.1705C104.26 48.7992 104.393 48.3485 104.393 47.8182V46.3636C104.226 46.4318 104.048 46.4962 103.859 46.5568C103.677 46.6174 103.48 46.6742 103.268 46.7273C103.063 46.7803 102.843 46.8295 102.609 46.875C102.381 46.9205 102.143 46.9621 101.893 47C101.408 47.0758 101.01 47.2008 100.7 47.375C100.397 47.5417 100.169 47.75 100.018 48C99.8738 48.2424 99.8018 48.5152 99.8018 48.8182C99.8018 49.303 99.9723 49.6742 100.313 49.9318C100.654 50.1894 101.09 50.3182 101.62 50.3182Z" fill="#0D0D0D"/>
<path d="M116.5 54.5455C115.182 54.5455 114.051 54.0852 113.108 53.1648C112.176 52.233 111.716 51.1023 111.727 49.7727C111.716 48.4773 112.176 47.3693 113.108 46.4489C114.051 45.5284 115.182 45.0682 116.5 45.0682C117.75 45.0682 118.852 45.5284 119.807 46.4489C120.773 47.3693 121.261 48.4773 121.273 49.7727C121.261 50.6591 121.028 51.4659 120.574 52.1932C120.131 52.9091 119.551 53.483 118.835 53.9148C118.119 54.3352 117.341 54.5455 116.5 54.5455Z" fill="#FF4D00"/>
</svg>
